<?xml version="1.0" encoding="UTF-8"?>
<svg version="1.1" xmlns="http://www.w3.org/2000/svg" width="2400" height="2868">
<path d="M0 0 C3.24990005 0.00564428 6.49979487 0.00846233 9.74969864 0.0110817 C41.2833793 0.04802221 72.65299506 0.42824884 104.07522964 3.31805801 C106.02736884 3.49150191 107.9795175 3.66483936 109.93167496 3.83807755 C187.93396795 10.87539936 287.72760106 21.1473129 367.07522964 82.31805801 C367.92214371 83.04122208 368.76905777 83.76438614 369.64163589 84.50946426 C373.87065373 88.16602622 377.68466777 91.94855534 381.28616714 96.22430801 C382.50564179 97.65146611 383.76315816 99.04677281 385.05179214 100.41180801 C413.86232872 131.00335957 443.07522964 182.37650319 443.07522964 225.31805801 C444.05878433 225.25239639 445.04233902 225.18673477 446.05569839 225.1190834 C457.72511635 224.36910312 469.38479103 223.98339973 481.07522964 223.75555801 C482.12326767 223.73471146 483.17130569 223.7138649 484.25110245 223.69238663 C508.73906305 223.2281323 533.23019265 223.20758471 557.72177505 223.19512177 C560.8263311 223.19309804 563.93088085 223.18935263 567.03543472 223.185215 C608.36362667 223.13739155 649.65962452 223.83713073 690.95022964 225.63055801 C692.45367737 225.69496796 693.95712587 225.75935968 695.4605751 225.82373428 C783.14402202 229.60322547 870.08840407 239.72634898 1148.07522964 288.31805801 C1148.82639053 288.49983597 1149.57755142 288.68161392 1150.35147476 288.8689003 C1195.47860157 299.82849296 1238.44650256 314.53136889 1274.07522964 345.31805801 C1274.99690933 346.10954239 1275.91858902 346.90102676 1276.86819839 347.71649551 C1300.83194466 368.82287935 1319.39880826 394.46914366 1333.09573746 423.25995255 C1333.74217158 424.6182376 1334.39504774 425.97347785 1335.05472183 427.32538223 C1374.26804406 508.03459321 1373.88609539 612.60560606 1420.26272964 1356.88055801 C1420.29101601 1357.9261866 1420.29101601 1357.9261866 1420.31987381 1358.992939 C1420.53892871 1367.13489457 1420.73835352 1375.27715016 1420.9184885 1383.4200449 C1421.00695425 1387.39762166 1421.10104884 1391.37496725 1421.2036171 1395.35220718 C1422.25489796 1436.29993798 1422.2630975 1477.24635573 1422.26034063 1518.20466334 C1422.26064483 1524.8387519 1422.26882726 1531.47279979 1422.28104019 1538.10687637 C1422.48562855 1651.80197816 1422.48562855 1651.80197816 1418.23147964 1706.19696426 C1418.1125032 1707.73290993 1418.1125032 1707.73290993 1417.9911232 1709.2998848 C1410.70055057 1800.68580242 1399.83524481 1891.91984111 1347.704319 2223.13147354 C1346.91479373 2227.13072891 1346.14103086 2231.13292499 1345.36886978 2235.1355629 C1330.12872297 2314.07824805 1312.05326024 2393.15204485 1215.07522964 2651.31805801 C1214.65032242 2652.19510391 1214.22541519 2653.07214981 1213.78763199 2653.97577286 C1199.79787643 2682.83692136 1183.46776278 2710.74285507 1164.07522964 2736.31805801 C1163.60133804 2736.94357559 1163.12744644 2737.56909317 1162.63919449 2738.21356583 C1149.65040778 2755.25027452 1135.62264635 2772.62883146 1119.07522964 2786.31805801 C1118.09812027 2787.18301895 1117.12101089 2788.04797989 1116.11429214 2788.93915176 C1102.54588943 2800.93270393 1087.92183353 2811.53736389 1072.07522964 2820.31805801 C1071.24426773 2820.78067032 1070.41330582 2821.24328262 1069.55716324 2821.71991348 C1013.32699135 2852.73684369 949.76664419 2861.84161523 886.57522964 2866.00555801 C885.65528214 2866.06649643 884.73533463 2866.12743484 883.78750992 2866.19021988 C855.40150525 2868.03817765 827.06898056 2868.48123788 798.63433576 2868.48531508 C795.78610439 2868.48603768 792.93787752 2868.4881943 790.08964729 2868.4908123 C780.04976354 2868.50001158 770.00989286 2868.50415501 759.97000504 2868.50336075 C751.79322712 2868.50283045 743.61649728 2868.50983703 735.4397316 2868.52386856 C645.40690861 2868.67487898 554.58950537 2868.02343195 290.88772964 2771.44305801 C231.49219845 2711.77169618 219.01889051 2622.59120569 214.07522964 2542.31805801 C214.00175308 2541.13453751 213.92827652 2539.951017 213.85257339 2538.73163223 C208.82896965 2452.06110704 211.63614657 2354.69586565 282.98147964 2216.73212051 C318.90096721 2176.6988173 366.92629691 2155.40736935 419.07522964 2145.31805801 C420.18736832 2145.09956192 421.29950699 2144.88106583 422.44534683 2144.65594864 C491.22324615 2131.4391193 562.60489952 2133.25175868 632.32522964 2134.75555801 C633.68963684 2134.7847583 633.68963684 2134.7847583 635.08160782 2134.81454849 C643.892235 2135.01194434 652.69903739 2135.29402264 661.50101089 2135.73602676 C662.19482864 2135.76579102 662.88864639 2135.79555527 663.60348892 2135.82622147 C669.05054097 2136.13044737 672.60828319 2137.21854415 677.07522964 2140.31805801 C680.35725065 2145.24108952 679.54141966 2150.56104366 679.07522964 2156.31805801 C678.19323917 2160.65723749 676.8938419 2164.80188597 675.51272964 2169.00555801 C674.77584637 2171.37457094 674.04153664 2173.74438566 673.30960464 2176.11493301 C672.93642105 2177.30924942 672.56323746 2178.50356583 672.17874527 2179.73407364 C658.25921646 2224.94174685 659.19759635 2266.20571245 667.85550308 2312.39715958 C669.19407651 2319.80644632 670.40151151 2327.6044688 667.82522964 2334.81805801 C665.11684996 2338.68717185 662.6838722 2340.46035941 658.07522964 2341.31805801 C655.53319251 2341.42526256 653.01701899 2341.48234521 650.47464371 2341.491642 C649.71281784 2341.49832901 648.95099197 2341.50501602 648.16608047 2341.51190567 C646.51067316 2341.52594547 644.85524661 2341.53784293 643.19981003 2341.54785347 C640.55484198 2341.56437674 637.91000961 2341.58763255 635.26511002 2341.61275101 C627.74355368 2341.6831145 620.22193388 2341.74276031 612.70022964 2341.79486465 C541.62983933 2341.34997225 541.62983933 2341.34997225 481.07522964 2374.31805801 C480.44874527 2374.90844864 479.82226089 2375.49883926 479.17679214 2376.10712051 C461.63916773 2394.12087952 458.5816592 2422.66959733 458.79227066 2446.46869278 C459.26504985 2471.01546044 461.23935842 2496.92392416 472.07522964 2519.31805801 C472.53671402 2520.29516739 472.99819839 2521.27227676 473.47366714 2522.27899551 C483.91005413 2542.86347151 501.89326351 2554.17427644 523.20804214 2561.37665176 C538.85282839 2566.12926413 554.82757511 2568.48967517 571.07522964 2570.00555801 C572.94755264 2570.18453629 572.94755264 2570.18453629 574.85770035 2570.36713028 C598.01209965 2572.3691643 621.31465693 2572.4788398 644.54007339 2572.48602676 C647.07885632 2572.48926035 649.61763907 2572.49262576 652.15642166 2572.49611282 C657.439502 2572.50203657 662.72256615 2572.50395998 668.00564957 2572.50336075 C673.31329879 2572.50283088 678.6208643 2572.51016858 683.92850113 2572.52386856 C710.17649923 2572.59049043 736.39907122 2572.57997945 762.62601089 2571.41962051 C763.53688902 2571.37987295 764.44776714 2571.34012539 765.38624763 2571.29917336 C792.82928732 2570.06330371 820.26880437 2567.50937744 847.07522964 2561.31805801 C847.89781265 2561.13162735 848.72039566 2560.94519669 849.56790543 2560.75311661 C878.87908548 2553.92822438 906.57879646 2539.100791 922.96829605 2513.15253067 C942.13936352 2481.38115861 946.89257256 2443.71562083 949.07522964 2407.31805801 C949.1175975 2406.6539592 949.15996536 2405.98986038 949.2036171 2405.30563736 C950.29962853 2387.71842605 950.27623638 2370.11889159 950.26272964 2352.50555801 C950.26246277 2351.72577213 950.26219589 2350.94598625 950.26192093 2350.1425705 C950.22549698 2265.20341296 947.55181631 2173.51716246 907.07522964 2076.31805801 C906.6860939 2075.51384415 906.29695816 2074.70963028 905.89603043 2073.8810463 C897.26207419 2056.24881695 886.27094632 2040.82047732 873.07522964 2026.31805801 C872.40233902 2025.57297989 871.72944839 2024.82790176 871.03616714 2024.06024551 C839.53233769 1990.94770988 793.03444341 1978.08571447 749.27444839 1971.96649551 C748.16184458 1971.80909928 748.16184458 1971.80909928 747.02676392 1971.64852333 C730.34132579 1969.29021105 713.62167367 1967.21212311 696.89805603 1965.14580727 C610.76241761 1954.49862512 524.02510172 1943.3145774 404.07522964 1912.31805801 C403.11810074 1912.01077774 402.16097183 1911.70349747 401.17483902 1911.38690567 C382.01062207 1905.13641244 363.29980141 1896.393775 347.07522964 1884.31805801 C346.54735855 1883.92860001 346.01948746 1883.539142 345.47562027 1883.13788223 C286.38787555 1839.23004432 259.56588064 1769.10692245 249.05350113 1698.28900528 C246.91984895 1683.67819804 245.04966755 1669.05738053 244.07522964 1654.31805801 C243.99127945 1653.21018936 243.90732925 1652.10232071 243.82083511 1650.96088028 C243.08590908 1640.43195012 242.95633918 1629.90313835 242.86429214 1619.35321426 C242.84983874 1617.80710699 242.83535284 1616.26100001 242.82083511 1614.71489334 C242.76238189 1608.29758552 242.7068037 1601.8803294 242.67386246 1595.4628334 C242.65296561 1591.49321847 242.61775769 1587.52395259 242.57310486 1583.55453682 C242.55896549 1582.05266202 242.55022707 1580.55072607 242.54705048 1579.04878807 C242.54216075 1576.96507065 242.51907347 1574.88229727 242.49173355 1572.7987709 C242.4836467 1571.61618195 242.47555984 1570.43359299 242.46722794 1569.215168 C242.3009585 1566.33291816 242.3009585 1566.33291816 240.74451065 1564.40129471 C238.96860282 1563.01416679 238.96860282 1563.01416679 235.95022964 1563.50555801 C235.00147964 1563.77368301 234.05272964 1564.04180801 233.07522964 1564.31805801 C231.77082318 1566.92687094 231.8949982 1568.91987457 231.82571793 1571.8419838 C231.7800972 1573.5941143 231.7800972 1573.5941143 231.73355484 1575.38164139 C231.70451065 1576.662612 231.67546646 1577.94358261 231.64554214 1579.26337051 C231.61110916 1580.60893148 231.57606235 1581.95447687 231.54043961 1583.30000687 C231.4644333 1586.17743514 231.39021708 1589.05490087 231.31723404 1591.93240738 C229.06944898 1679.55275783 220.04397111 1765.91824275 124.07522964 2027.31805801 C95.63891592 2053.84234492 59.69566594 2057.61871406 22.45480156 2056.42080688 C16.00868838 2056.14246655 9.60498351 2055.44052106 3.19632339 2054.71649551 C2.42179573 2054.63119331 1.64726807 2054.54589111 0.84926987 2054.458004 C-18.93713835 2052.26471355 -38.5822039 2049.14924262 -58.23991394 2046.03217316 C-67.30280163 2044.59897752 -76.3699389 2043.19270219 -85.43648911 2041.78290176 C-86.42455992 2041.62898657 -87.41263073 2041.47507137 -88.43064308 2041.31649208 C-103.82037192 2038.92090711 -119.22185458 2036.67500184 -134.65597153 2034.58249283 C-218.07955243 2023.264979 -300.91262754 2007.02746783 -629.92477036 1923.31805801 C-630.61405624 1923.09116287 -631.30334213 1922.86426773 -632.01351547 1922.63049698 C-698.5266977 1900.68255389 -751.62908339 1874.73272448 -785.92477036 1811.31805801 C-786.44539047 1810.36576309 -786.96601059 1809.41346817 -787.50240707 1808.43231583 C-802.17601884 1781.47641363 -813.43201877 1753.5426684 -823.1883812 1724.50574112 C-823.91729003 1722.34028076 -824.65205935 1720.17688743 -825.38814926 1718.0138588 C-851.33496007 1641.57488787 -869.23836074 1562.09401264 -960.34853745 1074.06988907 C-960.71231443 1071.70135062 -961.07683798 1069.3329266 -961.44240952 1066.96466446 C-968.68945056 1020.00309662 -973.45397643 972.70088537 -976.92477036 925.31805801 C-976.97885056 924.61128922 -977.03293076 923.90452042 -977.08864975 923.17633438 C-981.47985243 864.99946732 -980.21306643 800.64922163 -953.92477036 747.31805801 C-953.57156723 746.59392715 -953.21836411 745.8697963 -952.85445786 745.12372208 C-947.77154031 734.807045 -941.92314857 725.43558211 -934.92477036 716.31805801 C-934.26477036 715.43376114 -933.60477036 714.54946426 -932.92477036 713.63837051 C-895.75874263 665.8742177 -838.35896513 643.86373427 -779.92477036 636.31805801 C-757.94906899 633.5780047 -736.01137586 633.16770211 -713.88877749 633.17608559 C-710.29634485 633.17630412 -706.70392065 633.17069303 -703.11149216 633.16568375 C-696.90547823 633.15763218 -690.69946833 633.1526485 -684.49345016 633.14939308 C-674.66564875 633.14384978 -664.83788114 633.12690747 -655.0100975 633.1080513 C-651.6349526 633.10169724 -648.25980761 633.09538847 -644.88466263 633.08907413 C-644.04156041 633.08749037 -643.1984582 633.08590661 -642.32980743 633.08427485 C-632.76755138 633.06639674 -623.205293 633.05014026 -613.64303207 633.03509903 C-612.77054791 633.03372316 -611.89806375 633.03234729 -610.99914068 633.03092972 C-596.85472634 633.00899012 -582.71032099 632.99823807 -568.56589264 632.99072828 C-553.99138963 632.98263433 -539.41696264 632.95927763 -524.84250307 632.92277461 C-515.88099857 632.90086675 -506.91965083 632.89104871 -497.95812094 632.89727495 C-491.81139503 632.90046941 -485.66480243 632.88898973 -479.51811779 632.86638054 C-475.98347133 632.85382135 -472.44912221 632.84740934 -468.91446495 632.85879707 C-450.29678074 632.9021795 -432.24051881 632.38643269 -414.98727036 624.56805801 C-414.20352036 624.22444229 -413.41977036 623.88082657 -412.61227036 623.52679825 C-405.87798784 620.48208712 -399.80688414 616.80210417 -393.92477036 612.31805801 C-392.99406723 611.61938614 -392.06336411 610.92071426 -391.10445786 610.20087051 C-369.94953204 593.64227955 -355.85448267 569.26592222 -352.13718796 542.57226753 C-351.66136689 537.52277842 -351.78371917 532.44012677 -351.79195786 527.37298965 C-351.79059326 526.07229727 -351.78922867 524.77160488 -351.78782272 523.43149757 C-351.78499379 519.84788964 -351.78947334 516.26432578 -351.79599762 512.68072391 C-351.79980266 510.39631708 -351.80184936 508.11191447 -351.80346298 505.82750511 C-351.83157614 471.83395698 -352.27109404 437.84684521 -352.74424958 403.85710829 C-353.00584951 385.05006448 -353.24299639 366.24271662 -353.47164536 347.43524551 C-353.48770089 346.11597576 -353.48770089 346.11597576 -353.50408077 344.7700541 C-353.86626131 314.9166202 -354.14940764 285.06469465 -354.17153549 255.2087326 C-354.1747239 252.42117456 -354.1817777 249.63365128 -354.18990707 246.84610367 C-354.28265422 211.3658337 -354.28265422 211.3658337 -351.92477036 194.31805801 C-351.76379868 193.13316788 -351.602827 191.94827774 -351.43697739 190.72748184 C-350.97783788 187.69868693 -350.44906557 184.69953097 -349.86227036 181.69305801 C-349.54963242 180.09035049 -349.54963242 180.09035049 -349.23067856 178.45526505 C-345.377158 159.88867071 -339.19577816 141.87210201 -329.92477036 125.31805801 C-329.31246567 124.15919083 -328.70016098 123.00032364 -328.06930161 121.80633926 C-300.86731215 71.72102673 -248.94567693 41.07394809 -196.92477036 22.31805801 C-195.96506332 21.97017227 -195.00535629 21.62228653 -194.01656723 21.2638588 C-133.5326708 -0.27731447 -63.58183608 -0.11218732 0 0 Z M815.07522964 1195.31805801 C814.42538101 1195.45727676 813.77553238 1195.59649551 813.10599136 1195.73993301 C779.47649956 1203.04958859 752.13540145 1224.89323345 733.74271011 1253.38202286 C715.00436414 1283.07806287 698.7098419 1326.81797676 700.07522964 1362.31805801 C710.97813959 1361.60531251 721.82293779 1360.57025914 732.68851089 1359.42352676 C751.06199907 1357.53073246 769.23739534 1357.07680094 787.70022964 1357.06805801 C788.98390427 1357.06738327 790.26757889 1357.06670853 791.59015274 1357.06601334 C813.22009932 1357.08400033 834.58909468 1357.80194246 856.07522964 1360.31805801 C857.17079178 1360.44534286 857.17079178 1360.44534286 858.28848648 1360.57519913 C905.74059386 1366.15650413 953.25136391 1377.11257633 997.18069839 1396.13837051 C999.86296164 1397.44386334 999.86296164 1397.44386334 1002.07522964 1397.31805801 C1003.52496326 1339.61865998 993.73443592 1275.10605823 953.07522964 1231.31805801 C952.41265152 1230.57426895 951.75007339 1229.83047989 951.06741714 1229.06415176 C929.30484663 1205.74711193 894.98612462 1193.31035008 863.57986832 1192.19379044 C859.45253795 1192.11106455 855.3282679 1192.07199223 851.20022964 1192.06805801 C850.46701492 1192.06705093 849.7338002 1192.06604385 848.97836685 1192.06500626 C837.43794982 1192.0757137 826.34913566 1192.72904916 815.07522964 1195.31805801 Z " fill="#73BB43" transform="translate(977.9247703552246,-0.3180580139160156)"/>
<path d="M0 0 C-1.30604491 3.39518893 -2.77406491 6.60654693 -4.46875 9.82421875 C-29.40362924 57.88770372 -39.28662222 108.94203839 -39.12109375 162.75 C-39.11908368 164.15374374 -39.11908368 164.15374374 -39.117033 165.58584595 C-39.06469651 199.48590018 -38.56888636 233.38604877 -38.16577852 267.28328133 C-38.05230338 276.83280894 -37.9418292 286.38237042 -37.83162618 295.93193626 C-37.79877757 298.77390552 -37.76578247 301.61587304 -37.73273277 304.45783997 C-37.63388223 312.95933054 -37.53538044 321.46082376 -37.43929374 329.96234608 C-37.38599759 334.67021594 -37.33207801 339.37807849 -37.27783203 344.0859375 C-37.26174546 345.48349053 -37.26174546 345.48349053 -37.24533391 346.90927696 C-37.09661256 359.73926392 -36.92308234 372.56871972 -36.73125172 385.39813232 C-36.6263424 392.42129536 -36.52820225 399.44454862 -36.43162125 406.46783066 C-36.35269969 412.15968451 -36.26457936 417.85129727 -36.16944838 423.54290199 C-36.11312662 427.04441453 -36.06561555 430.54600645 -36.02052426 434.0476799 C-35.99792457 435.66201784 -35.97167366 437.27630965 -35.94140506 438.890522 C-35.70177536 451.81554377 -36.02534302 461.93430629 -45 472 C-53.12176011 478.81590848 -61.77230411 479.29504171 -71.96659851 479.26501465 C-73.16972225 479.26939592 -74.37284598 479.27377719 -75.61242801 479.27829123 C-78.9402945 479.28846177 -82.26795011 479.2897776 -85.59581697 479.28735614 C-89.19068991 479.28693572 -92.78552926 479.29804488 -96.38038635 479.30781555 C-102.61114864 479.32326212 -108.84188832 479.33167885 -115.07266808 479.33552551 C-124.11175707 479.34128948 -133.15078576 479.3599063 -142.18984804 479.38196605 C-156.89633085 479.41768997 -171.60281709 479.44599233 -186.30932617 479.46826172 C-187.18922617 479.46959671 -188.06912617 479.4709317 -188.97568981 479.47230715 C-195.2129596 479.48172353 -201.45022976 479.49088134 -207.6875 479.5 C-214.77596059 479.51037925 -221.86442094 479.52090523 -228.95288086 479.53173828 C-230.26156235 479.53373439 -230.26156235 479.53373439 -231.59668186 479.53577083 C-246.22393626 479.55832162 -260.85116543 479.58858069 -275.47839385 479.62413073 C-284.47435252 479.64562599 -293.47027187 479.66036835 -302.46625475 479.66596949 C-308.65657305 479.67026718 -314.84685408 479.68163428 -321.0371516 479.69819343 C-324.59098052 479.70745625 -328.14474002 479.71376766 -331.6985817 479.71113014 C-354.85131156 479.70406927 -377.98044748 480.54768226 -400.9375 483.75 C-402.78214844 484.00487183 -402.78214844 484.00487183 -404.6640625 484.26489258 C-444.37194257 489.97973082 -482.15093208 501.38630958 -517.76464844 519.88574219 C-518.79879883 520.42102539 -519.83294922 520.95630859 -520.8984375 521.5078125 C-521.81286621 521.98879395 -522.72729492 522.46977539 -523.66943359 522.96533203 C-526 524 -526 524 -529 524 C-527.5383748 520.63438978 -525.68054584 518.43132347 -523.09286499 515.84562683 C-522.27708984 515.0256572 -521.4613147 514.20568756 -520.62081909 513.36087036 C-519.2758989 512.02437943 -519.2758989 512.02437943 -517.90380859 510.66088867 C-516.95056636 509.70657308 -515.99775734 508.75182458 -515.04534912 507.79667664 C-512.45866958 505.20515129 -509.86578408 502.61991814 -507.2716136 500.03589416 C-504.55210266 497.32518036 -501.83787882 494.60918203 -499.12295532 491.89387512 C-494.55819185 487.33004833 -489.98957321 482.77010994 -485.41845703 478.21264648 C-480.1484009 472.95827351 -474.88354641 467.69873538 -469.62169397 462.43614787 C-464.00623802 456.8200136 -458.38696892 451.2077064 -452.76659441 445.59649491 C-451.15517834 443.98720071 -449.54446532 442.37720574 -447.93391037 440.76704979 C-445.39016023 438.2243125 -442.84384523 435.68417011 -440.29561615 433.14592171 C-438.92624086 431.78081005 -437.5592472 430.41331061 -436.19235229 429.04571533 C-432.57084041 425.44275251 -428.94686679 421.89833608 -425.06863403 418.5716095 C-419.79185784 414.0294579 -414.93609534 409.05959753 -410.02929688 404.12695312 C-408.94773904 403.04347225 -407.86595045 401.96022168 -406.78395081 400.87718201 C-404.46850119 398.55858986 -402.15460982 396.23845804 -399.8419342 393.917099 C-396.17894061 390.24049445 -392.5120566 386.56778629 -388.84460449 382.89562988 C-381.0600932 375.10005487 -373.27982379 367.30025263 -365.5 359.5 C-357.09879591 351.0767354 -348.69685164 342.65421708 -340.2900033 334.23658514 C-336.65042783 330.59205165 -333.01329886 326.94509992 -329.37807465 323.2962265 C-327.10999781 321.02064847 -324.83981341 318.74718178 -322.56907463 316.47426033 C-321.52337224 315.42669865 -320.4785281 314.37827938 -319.43464851 313.32890129 C-314.4545102 308.32337635 -309.43096536 303.44356539 -304.07013702 298.84429169 C-299.53582942 294.80466256 -295.31079188 290.43100036 -291.02929688 286.12695312 C-289.94773904 285.04347225 -288.86595045 283.96022168 -287.78395081 282.87718201 C-285.46850119 280.55858986 -283.15460982 278.23845804 -280.8419342 275.917099 C-277.17894061 272.24049445 -273.5120566 268.56778629 -269.84460449 264.89562988 C-262.0600932 257.10005487 -254.27982379 249.30025263 -246.5 241.5 C-238.09879591 233.0767354 -229.69685164 224.65421708 -221.2900033 216.23658514 C-217.65042783 212.59205165 -214.01329886 208.94509992 -210.37807465 205.2962265 C-208.10999781 203.02064847 -205.83981341 200.74718178 -203.56907463 198.47426033 C-202.52337224 197.42669865 -201.4785281 196.37827938 -200.43464851 195.32890129 C-195.4545102 190.32337635 -190.43096536 185.44356539 -185.07013702 180.84429169 C-180.53582942 176.80466256 -176.31079188 172.43100036 -172.02929688 168.12695312 C-170.94773904 167.04347225 -169.86595045 165.96022168 -168.78395081 164.87718201 C-166.46850119 162.55858986 -164.15460982 160.23845804 -161.8419342 157.917099 C-158.17894061 154.24049445 -154.5120566 150.56778629 -150.84460449 146.89562988 C-143.0600932 139.10005487 -135.27982379 131.30025263 -127.5 123.5 C-119.09879591 115.0767354 -110.69685164 106.65421708 -102.2900033 98.23658514 C-98.65042783 94.59205165 -95.01329886 90.94509992 -91.37807465 87.2962265 C-89.10999781 85.02064847 -86.83981341 82.74718178 -84.56907463 80.47426033 C-83.52337224 79.42669865 -82.4785281 78.37827938 -81.43464851 77.32890129 C-76.36333188 72.23173324 -71.25144202 67.24701379 -65.79040909 62.56456375 C-62.93896282 60.07280391 -60.27926261 57.40292465 -57.61572266 54.71337891 C-57.0325528 54.12874878 -56.44938293 53.54411865 -55.84854126 52.94177246 C-54.5990768 51.68853934 -53.35076724 50.43415387 -52.1035347 49.17869949 C-50.13047042 47.19275106 -48.15419319 45.21004946 -46.17709351 43.2281189 C-41.99022787 39.02989832 -37.80734042 34.82772804 -33.625 30.625 C-28.7555371 25.73192993 -23.88445402 20.84049543 -19.00916672 15.953228 C-17.06050807 13.99807949 -15.11487848 12.03995024 -13.16934204 10.08169556 C-11.98234507 8.89106844 -10.79520882 7.70058017 -9.60791016 6.51025391 C-9.06662476 5.96380219 -8.52533936 5.41735046 -7.96765137 4.8543396 C-3.11400156 0 -3.11400156 0 0 0 Z " fill="#73BB43" transform="translate(574,77)"/>
</svg>
